#!OML:ASF H:\Dans Jumps\Project 1\Capture day 1\Session 1\subject.ASF
:FULLY-SPECIFIED
:DEGREES
460
root 0.56413 17.5956 4.79587 6.27348 -0.597605 -1.72956
lowerback 2.44896 -0.971625 -0.470528
upperback 2.81845 -1.32895 2.54462
thorax 1.59102 -0.701237 2.8907
lowerneck -14.075 0.77849 -1.15806
upperneck 21.509 1.26674 0.360149
head 9.0595 0.533552 0.466381
rclavicle 2.71341e-014 -1.51076e-014
rhumerus -28.9535 -20.2344 -78.8624
rradius 20.512
rwrist 37.0481
rhand -20.7521 -25.5464
rfingers 7.12502
rthumb 5.61369 -55.452
lclavicle 2.71341e-014 -1.51076e-014
lhumerus -18.0944 -10.4954 94.8603
lradius 18.3222
lwrist 4.55916
lhand -25.4608 -5.44309
lfingers 7.12502
lthumb 1.0665 24.534
rfemur -20.634 0.0995938 20.5546
rtibia 26.1179
rfoot -10.5989 -2.52306
rtoes 12.3315
lfemur -20.6061 4.86539 -18.4179
ltibia 24.7472
lfoot -8.50168 3.51429
ltoes -0.288194
461
root 0.564525 17.5989 4.81326 6.31647 -0.544654 -1.73552
lowerback 2.42371 -0.921201 -0.462745
upperback 2.82147 -1.26187 2.54545
thorax 1.60446 -0.667631 2.88614
lowerneck -14.1315 0.741654 -1.19361
upperneck 21.1787 1.20965 0.422279
head 8.95591 0.512994 0.4853
rclavicle -7.55382e-015 1.03368e-014
rhumerus -28.7383 -20.0022 -79.0181
rradius 20.5806
rwrist 36.7213
rhand -20.7097 -25.5255
rfingers 7.12502
rthumb 5.65467 -55.4301
lclavicle -7.55382e-015 1.03368e-014
lhumerus -18.3663 -10.3694 95.0617
lradius 18.0221
lwrist 4.63106
lhand -25.468 -5.40324
lfingers 7.12502
lthumb 1.05961 24.5739
rfemur -20.5639 0.0876669 20.5581
rtibia 26.0324
rfoot -10.6038 -2.56128
rtoes 12.3422
lfemur -20.5535 4.89092 -18.4195
ltibia 24.6721
lfoot -8.53218 3.48649
ltoes -0.350748
462
root 0.564832 17.6024 4.83089 6.35587 -0.503287 -1.73339
lowerback 2.39191 -0.86505 -0.463243
upperback 2.82571 -1.18729 2.54107
thorax 1.62249 -0.630412 2.88072
lowerneck -14.1788 0.702837 -1.23502
upperneck 20.8385 1.14985 0.491368
head 8.84761 0.491391 0.507087
rclavicle 2.94201e-014 3.97569e-016
rhumerus -28.5271 -19.7921 -79.1493
rradius 20.6322
rwrist 36.4705
rhand -20.6924 -25.5179
rfingers 7.12502
rthumb 5.67137 -55.422
lclavicle 2.94201e-014 3.97569e-016
lhumerus -18.644 -10.229 95.2457
lradius 17.7319
lwrist 4.67325
lhand -25.4767 -5.36711
lfingers 7.12502
lthumb 1.05116 24.61
rfemur -20.4887 0.0856355 20.5525
rtibia 25.9446
rfoot -10.6123 -2.59916
rtoes 12.3582
lfemur -20.4916 4.92852 -18.4298
ltibia 24.5907
lfoot -8.56362 3.45759
ltoes -0.414607
463
root 0.564885 17.6059 4.84852 6.39156 -0.464992 -1.73108
lowerback 2.3576 -0.806168 -0.465182
upperback 2.82948 -1.10907 2.5343
thorax 1.64123 -0.591372 2.87365
lowerneck -14.2158 0.661992 -1.28081
upperneck 20.4892 1.08732 0.565856
head 8.73482 0.468665 0.530955
rclavicle -1.18277e-014 3.57812e-015
rhumerus -28.315 -19.6377 -79.2463
rradius 20.6517
rwrist 36.3239
rhand -20.6956 -25.5079
rfingers 7.12502
rthumb 5.66828 -55.4121
lclavicle -1.18277e-014 3.57812e-015
lhumerus -18.9307 -10.0691 95.4086
lradius 17.4539
lwrist 4.63932
lhand -25.4821 -5.33412
lfingers 7.12502
lthumb 1.04596 24.6431
rfemur -20.4085 0.0907108 20.5476
rtibia 25.8539
rfoot -10.6221 -2.64181
rtoes 12.3767
lfemur -20.425 4.9765 -18.4394
ltibia 24.5077
lfoot -8.59801 3.42284
ltoes -0.47121
464
root 0.564824 17.6093 4.86596 6.4261 -0.42555 -1.73546
lowerback 2.32509 -0.746736 -0.459519
upperback 2.8264 -1.02987 2.52723
thorax 1.65173 -0.551577 2.86212
lowerneck -14.2342 0.619488 -1.32035
upperneck 20.1317 1.02296 0.632454
head 8.61646 0.444622 0.550713
rclavicle -4.17448e-015 1.15295e-014
rhumerus -28.113 -19.5113 -79.3168
rradius 20.6541
rwrist 36.2509
rhand -20.7116 -25.5025
rfingers 7.12502
rthumb 5.65283 -55.4071
lclavicle -4.17448e-015 1.15295e-014
lhumerus -19.2396 -9.87904 95.5485
lradius 17.1964
lwrist 4.49592
lhand -25.4745 -5.29694
lfingers 7.12502
lthumb 1.05331 24.6802
rfemur -20.3256 0.0950518 20.551
rtibia 25.7597
rfoot -10.6316 -2.68449
rtoes 12.396
lfemur -20.3596 5.03069 -18.4414
ltibia 24.4272
lfoot -8.63621 3.38197
ltoes -0.522099
465
root 0.564711 17.6128 4.88323 6.45907 -0.379857 -1.75161
lowerback 2.29345 -0.689423 -0.439012
upperback 2.81931 -0.953262 2.52111
thorax 1.65754 -0.51274 2.84332
lowerneck -14.2543 0.578301 -1.34677
upperneck 19.7756 0.960904 0.684867
head 8.49959 0.421005 0.563783
rclavicle 1.11319e-014 -2.0276e-014
rhumerus -27.9162 -19.4211 -79.3625
rradius 20.6393
rwrist 36.2529
rhand -20.7332 -25.5061
rfingers 7.12502
rthumb 5.63196 -55.4112
lclavicle 1.11319e-014 -2.0276e-014
lhumerus -19.5627 -9.65416 95.662
lradius 16.9529
lwrist 4.23553
lhand -25.4511 -5.25896
lfingers 7.12502
lthumb 1.07585 24.7181
rfemur -20.2386 0.0920881 20.5685
rtibia 25.6614
rfoot -10.6406 -2.72479
rtoes 12.4132
lfemur -20.2959 5.0885 -18.4306
ltibia 24.3499
lfoot -8.67828 3.33289
ltoes -0.572488
466
root 0.564714 17.6162 4.90053 6.49046 -0.326996 -1.77157
lowerback 2.2594 -0.636248 -0.41018
upperback 2.80996 -0.882067 2.51449
thorax 1.6626 -0.476427 2.81937
lowerneck -14.2683 0.538688 -1.36275
upperneck 19.4072 0.901743 0.723864
head 8.37806 0.398034 0.570863
rclavicle 4.27387e-015 -3.1408e-014
rhumerus -27.7201 -19.3394 -79.3935
rradius 20.615
rwrist 36.2934
rhand -20.7503 -25.5247
rfingers 7.12502
rthumb 5.61547 -55.4303
lclavicle 4.27387e-015 -3.1408e-014
lhumerus -19.893 -9.41656 95.7512
lradius 16.7203
lwrist 3.89536
lhand -25.4049 -5.20055
lfingers 7.12502
lthumb 1.12047 24.7762
rfemur -20.1474 0.0724641 20.5909
rtibia 25.5601
rfoot -10.6517 -2.75578
rtoes 12.4155
lfemur -20.2312 5.14444 -18.4161
ltibia 24.2748
lfoot -8.72163 3.27939
ltoes -0.620613
467
root 0.564933 17.6197 4.91804 6.51994 -0.266639 -1.78426
lowerback 2.21761 -0.587399 -0.382094
upperback 2.80191 -0.816722 2.50392
thorax 1.67368 -0.443068 2.79177
lowerneck -14.283 0.499594 -1.37259
upperneck 19.0282 0.844705 0.751098
head 8.25375 0.375192 0.57323
rclavicle 1.49089e-015 -1.11319e-014
rhumerus -27.5259 -19.2668 -79.4143
rradius 20.5936
rwrist 36.3562
rhand -20.7662 -25.5557
rfingers 7.12502
rthumb 5.60013 -55.4617
lclavicle 1.49089e-015 -1.11319e-014
lhumerus -20.2238 -9.18839 95.819
lradius 16.4982
lwrist 3.51133
lhand -25.3415 -5.1173
lfingers 7.12502
lthumb 1.18174 24.8592
rfemur -20.0518 0.0312908 20.6056
rtibia 25.4575
rfoot -10.6663 -2.77311
rtoes 12.4062
lfemur -20.1633 5.19333 -18.4104
ltibia 24.1994
lfoot -8.76575 3.22394
ltoes -0.681172
468
root 0.565394 17.6231 4.9358 6.54982 -0.198722 -1.79169
lowerback 2.1678 -0.542779 -0.350799
upperback 2.79347 -0.757024 2.48869
thorax 1.6891 -0.412448 2.75756
lowerneck -14.2751 0.457704 -1.38871
upperneck 18.6158 0.784406 0.782075
head 8.11468 0.350719 0.577318
rclavicle -1.09332e-014 -6.36111e-015
rhumerus -27.3328 -19.2147 -79.4237
rradius 20.5673
rwrist 36.4373
rhand -20.7801 -25.5964
rfingers 7.12502
rthumb 5.58669 -55.5027
lclavicle -1.09332e-014 -6.36111e-015
lhumerus -20.5531 -8.9659 95.8638
lradius 16.28
lwrist 3.09823
lhand -25.283 -5.05308
lfingers 7.12502
lthumb 1.23828 24.9231
rfemur -19.9554 -0.0293906 20.6144
rtibia 25.3565
rfoot -10.6876 -2.77841
rtoes 12.3973
lfemur -20.0956 5.23047 -18.4108
ltibia 24.1251
lfoot -8.80814 3.17093
ltoes -0.751929
469
root 0.565852 17.6264 4.95383 6.57798 -0.12642 -1.79527
lowerback 2.1136 -0.501105 -0.31853
upperback 2.78403 -0.701252 2.46972
thorax 1.70619 -0.383737 2.71901
lowerneck -14.2474 0.414136 -1.41519
upperneck 18.1775 0.722808 0.819824
head 7.96405 0.32551 0.5851
rclavicle -3.08116e-015 -7.95139e-016
rhumerus -27.148 -19.1693 -79.4258
rradius 20.5481
rwrist 36.5121
rhand -20.7909 -25.6456
rfingers 7.12502
rthumb 5.57623 -55.5522
lclavicle -3.08116e-015 -7.95139e-016
lhumerus -20.8773 -8.75412 95.8865
lradius 16.0617
lwrist 2.68174
lhand -25.2486 -4.99112
lfingers 7.12502
lthumb 1.27149 24.9848
rfemur -19.8564 -0.0989486 20.6188
rtibia 25.2576
rfoot -10.7146 -2.77927
rtoes 12.3968
lfemur -20.0284 5.25626 -18.4145
ltibia 24.0567
lfoot -8.85219 3.12385
ltoes -0.820762
470
root 0.565993 17.6293 4.9714 6.60717 -0.050777 -1.80725
lowerback 2.06074 -0.461787 -0.278893
upperback 2.77171 -0.64854 2.45236
thorax 1.71977 -0.35639 2.67808
lowerneck -14.2028 0.369552 -1.44478
upperneck 17.7138 0.660943 0.856018
head 7.80272 0.299725 0.592755
rclavicle -6.55989e-015 2.18663e-014
rhumerus -26.9706 -19.1241 -79.423
rradius 20.539
rwrist 36.5668
rhand -20.7996 -25.7088
rfingers 7.12502
rthumb 5.56787 -55.6157
lclavicle -6.55989e-015 2.18663e-014
lhumerus -21.194 -8.54283 95.8854
lradius 15.845
lwrist 2.27733
lhand -25.2601 -4.94022
lfingers 7.12502
lthumb 1.2604 25.0358
rfemur -19.7616 -0.161881 20.633
rtibia 25.1612
rfoot -10.7423 -2.78906
rtoes 12.4009
lfemur -19.9739 5.26955 -18.4059
ltibia 24.0028
lfoot -8.89694 3.08402
ltoes -0.897699
471
root 0.565592 17.6316 4.98852 6.63443 0.0264681 -1.83851
lowerback 2.02421 -0.427021 -0.22803
upperback 2.75209 -0.601595 2.44128
thorax 1.717 -0.331632 2.63755
lowerneck -14.153 0.328526 -1.4625
upperneck 17.2368 0.604588 0.876738
head 7.63693 0.275722 0.593979
rclavicle -6.85807e-015 3.57812e-015
rhumerus -26.797 -19.0908 -79.4142
rradius 20.5239
rwrist 36.6173
rhand -20.8185 -25.7677
rfingers 7.12502
rthumb 5.54958 -55.675
lclavicle -6.85807e-015 3.57812e-015
lhumerus -21.5062 -8.3033 95.8527
lradius 15.6273
lwrist 1.89559
lhand -25.3186 -4.87704
lfingers 7.12502
lthumb 1.2039 25.0993
rfemur -19.6682 -0.206654 20.6692
rtibia 25.0676
rfoot -10.7679 -2.81595
rtoes 12.4054
lfemur -19.9318 5.27274 -18.372
ltibia 23.9684
lfoot -8.94325 3.05333
ltoes -0.973565
